<?xml version="1.0" encoding="UTF-8"?>
<svg id="Capa_1" data-name="Capa 1" xmlns="http://www.w3.org/2000/svg" viewBox="0 0 1227.5 229.5">
  <defs>
    <style>
      .cls-1 {
        fill: #00070c;
        stroke-width: 0px;
      }
    </style>
  </defs>
  <ellipse class="cls-1" cx="563.65" cy="65.86" rx="21.78" ry="18.15"/>
  <path class="cls-1" d="m593.42,28.83c-.41,0-.8.04-1.18.12-.72.15-1.45-.12-2.03-.58-1.43-1.14-3.37-1.84-5.51-1.84-4.41,0-7.99,2.98-7.99,6.66s3.58,6.66,7.99,6.66c1.77,0,3.4-.48,4.72-1.29,1.1-.68,2.34-1.09,3.63-1.02.12,0,.24.01.36.01,2.89,0,5.23-1.95,5.23-4.36s-2.34-4.36-5.23-4.36Z"/>
  <circle class="cls-1" cx="533.88" cy="86.19" r="7.99"/>
  <ellipse class="cls-1" cx="596.32" cy="131.94" rx="6.54" ry="5.81"/>
  <circle class="cls-1" cx="358.16" cy="171.87" r="3.63"/>
  <ellipse class="cls-1" cx="371.23" cy="183.85" rx="5.81" ry="4.72"/>
  <ellipse class="cls-1" cx="336.66" cy="184.32" rx="6.69" ry="5.88" transform="translate(64.32 454.77) rotate(-73.5)"/>
  <circle class="cls-1" cx="631.18" cy="177.68" r="5.08"/>
  <circle class="cls-1" cx="652.23" cy="168.24" r="2.9"/>
  <circle class="cls-1" cx="666.03" cy="176.23" r="5.08"/>
  <ellipse class="cls-1" cx="889.68" cy="127.58" rx="3.63" ry="4.36"/>
  <ellipse class="cls-1" cx="833.04" cy="84.01" rx="5.08" ry="5.81"/>
  <ellipse class="cls-1" cx="854.1" cy="73.12" rx="2.9" ry="3.63"/>
  <path class="cls-1" d="m891.85,60.78c0,9.62-7.48,17.43-16.7,17.43s-16.7-7.8-16.7-17.43,9.66-17.43,18.88-17.43,14.52,7.8,14.52,17.43Z"/>
  <ellipse class="cls-1" cx="872.97" cy="35.36" rx="2.9" ry="3.63"/>
  <ellipse class="cls-1" cx="941.96" cy="176.95" rx="3.63" ry="4.36"/>
  <ellipse class="cls-1" cx="978.26" cy="175.5" rx="3.63" ry="4.36"/>
  <circle class="cls-1" cx="956.48" cy="184.94" r="5.08"/>
  <ellipse class="cls-1" cx="1178.67" cy="132.66" rx="10.89" ry="12.34" transform="translate(91.58 607.11) rotate(-30)"/>
  <circle class="cls-1" cx="1195.37" cy="69.49" r="4.36"/>
  <ellipse class="cls-1" cx="1172.14" cy="70.22" rx="2.9" ry="3.63"/>
  <path class="cls-1" d="m1214.25,49.16c0,4.41-2.07,8.36-5.32,11.03-3.73,3.05-9.28,2.81-12.81-.47-2.18-2.03-4.42-2.7-6.32-6.23-1.42-2.64-1.83-5.71-1.4-8.67.86-5.9,3.77-10.18,10.6-10.18,8.42,0,15.25,6.5,15.25,14.52Z"/>
  <ellipse class="cls-1" cx="272.47" cy="137.02" rx="9.44" ry="10.89"/>
  <ellipse class="cls-1" cx="279.74" cy="66.58" rx="2.18" ry="4.36"/>
  <circle class="cls-1" cx="284.82" cy="46.25" r="2.9"/>
  <path class="cls-1" d="m287.36,37.42c.93.83,1.04,3.48-.12,3.04-3.87-1.47-6.26,4.34-10.41,4.34-5.21,0-9.44-2.93-9.44-6.54s4.23-6.54,9.44-6.54c4.45,0,7.13,2.65,10.53,5.69Z"/>
  <path class="cls-1" d="m62.63,173.32c0,1.2-.98,2.18-2.18,2.18s-2.18-.25-2.18-1.45.98-2.9,2.18-2.9,2.18.98,2.18,2.18Z"/>
  <path class="cls-1" d="m46.48,175.54c.89,3.76-1.88,7.11-5.46,7.22-4.23.13-6.75-4.73-4.66-8.41,1.05-1.86,2.32-3.26,4.63-3.2,2.57.07,4.9,1.89,5.49,4.39Z"/>
  <path class="cls-1" d="m97.48,179.86c7.25-4.83,23.24-17.43,39.21-55.19,11.27-23.56,26.87-22.55,35.08-19.92,2.97.95,5.43,2.97,7.2,5.53,3.75,5.42,7.09-.14,7.09-.14,2.9-4.36,10.9-20.02,10.9-20.02h.02c1.58-3.37,3.52-6.72,5.87-9.96,9.77-17.78,27.45-26,42.31-24.19,7.34.9,14.04,4.98,17.75,11.37,7.71,13.27,6.32,34.59-6.2,51.86-5.06,6.98-11.08,12.59-17.42,16.63-5.11,4.22-10.86,7.3-10.86,7.3-5.47,3.46-.05,9.01,3.31,11.78,1.03.85,2.13,1.6,3.31,2.23,3.6,1.93,15.13,9.01,16.36,21.24,1.16,11.57-5.98,14.91-8.93,15.79-.63.19-.97.84-.81,1.48.41,1.66.18,3.45-.07,4.64-.17.78-.86,1.33-1.66,1.32H58.27s-38.87-.32-38.87-.32c-.22,0-.45-.04-.65-.14-3.02-1.54-4.57-8.28-5.18-11.26,0,0-.32-1.33-.32-2.05,0-3.61,2.6-6.54,5.81-6.54,2.38,0,4.43,1.62,5.32,3.93.48,1.25,1.14,2.42,2.13,3.32.34.31.68.59,1.01.85,1.77,1.39,3.91,2.25,6.15,2.49,0,0,15.89,1.02,21.7-1.88,5.65-2.82,19.53-18,30.97-10.84.87.54,1.76,1.04,2.73,1.34,2.06.64,5.54,1.23,8.41-.67Z"/>
  <path class="cls-1" d="m343.04,199.46h208.26c3.78-.76,5.94-4.75,4.51-8.33l-.15-.39s-5.56-10.01-9.87-14.45c-1.21-1.24-2.07-2.8-2.29-4.51-.33-2.55-.16-5.37,2.25-7.26.96-.75,2.12-1.25,3.33-1.41,9.12-1.21,29.77-25.12,28.35-43.52-1.45-18.88-14.52-26.14-23.24-18.88-7.34,6.11-15.19,16.86-22.69,21.84-2.06,1.37-4.54,1.98-7.01,1.84-6.67-.37-9.62,1.47-12.34-3-1.08-1.77-1.61-3.81-1.71-5.88-.37-7.57-.88-20.95-20.16-23.52-20.45-2.73-36.42,37.42-47.31,58.57-1.05,2.04-1.83,4.19-2.64,6.34-1.95,5.18-7.48,3.67-10.96,2.07-2.08-.95-4.31-1.6-6.6-1.68-7.77-.24-14.71,2.86-21.34,14.57,0,0-13.18,20.22-34.19,18.47-1.99-.17-3.78-1.37-4.62-3.18-.84-1.8-2.11-3.68-7.41-3.68-8.71,0-10.17,7.26-12.34,7.99-2.18.73-4.36,1.45-8.71,1.45-.26,0-.52.02-.78.06-2.74.42-2.69,4.45.05,4.92h0s2.22.05,4.02.61,3.66.94,5.55.94Z"/>
  <path class="cls-1" d="m1159.38,149.94c-3.62-4.73-9.12-6.11-13.35-11.5-1.25-1.59-2.12-3.43-2.5-5.41-.43-2.21-.52-5.29,1.02-8.36,2.9-5.81,23.24-45.02,4.36-56.64-10.11-6.22-21.48-6.2-31.41-2.82s-18.44,10.69-24.02,19.8c-6.76,11.04-14.48,21.74-15.73,36.75-1.45,17.43-12.81,10.53-12.81,10.53,0,0-13.33-7.62-22.04,2.54-6.85,7.99-11.9,17.77-13.75,21.59-.95,1.96-1.98,3.86-3.1,5.72-4.19,6.96-13.4,20.62-22.46,23.12-2.29.63-4.53,1.44-6.57,2.66l-1.47.88c-1.16.69-2.67.58-3.62-.38-3.09-3.12-7.49-4.59-11.82-3.94-2.97.45-4.88,1-9.49,3.06-1.17.52-2.31,1.12-3.46,1.68-1.51.74-2.3.59-3.65.42-4.62-.58-14.45-1.34-20.84,1.45,0-.12.03-.23.03-.35,0-2.81-1.95-5.08-4.36-5.08s-4.36,2.28-4.36,5.08c0,2.47,1.51,4.52,3.51,4.98-.74,1.59-1.01,3.53-.61,5.91l199.93-1.44c1.26,0,2.49-.39,3.54-1.09h0c1.31-.87,1.31-2.79,0-3.66h0c-.83-.55-.95-1.73-.24-2.44l1.04-1.04c2.08-2.08,3.48-4.87,3.4-7.81-.02-.9.18-1.78.58-2.58,1.43-2.84,4.33-4.63,7.51-4.63h0c1.23,0,2.42-.4,3.39-1.14,2.68-2.05,7.58-6.88,7.4-14.82-.09-4.01-1.6-7.86-4.04-11.04Z"/>
  <path class="cls-1" d="m637.41,191.09c1.3.11,2.61-.11,3.77-.71,8.02-4.15,7.32-.71,11.06-3.26,1.24-.84,5.81-1.45,8.71,0,.47.25,1.11.5,1.85.74,4.58,1.44,9.55.6,13.61-1.96.91-.57,1.71-1.03,2.48-1.44,2.67-1.43,5.41-2.73,8.15-4.03,5.39-2.57,14.76-9.59,20.26-20.33,1.65-3.22,3.46-6.37,5.73-9.2,6.62-8.24,12.07-10.25,20.54-10.25,7.12,0,12.13,4.98,13.62,7.97.33.67,1.32.56,1.52-.16,1.46-5.49,5.62-20.64,13.66-46.02,1.74-5.49,4.23-10.73,7.61-15.39,17.12-23.61,39.12-13.19,39.12-13.19,23.24,10.17,13.07,34.85,13.07,34.85,0,0-3.2,7.47.72,12.35,1.14,1.42,2.81,2.31,4.58,2.74,17.48,4.23,38.44-8.62,43.14,8.51,4.88,17.79-10.68,31.59-16.49,34.49s-11.62,4.36-14.52,10.17c-1.48,2.96-1.42,7.82.48,11.86,1.87,3.97.26,8.2-3.91,9.57h0c-.26.09-.53.13-.81.12-11.97-.2-65.53.22-71.36.02-2.21-.08-3.98.34-5.32.89-3.41,1.4-6.99,2.34-10.67,2.44-58.29,1.66-75.12-.68-79.98-2.21-1.67-.52-3.42-.64-5.17-.47-5.11.5-11.14-1.07-14.72-2.23-1.98-.64-4.08-.74-6.11-.29-3.08.68-8.48,1.43-15.92.76-1.17-.11-2.25-.85-2.62-1.96-.4-1.2.05-2.54,4.08-2.54,6.14,0,7.09-2.07,9.86-1.84Z"/>
</svg>