<?xml version="1.0" encoding="UTF-8"?>
<svg xmlns="http://www.w3.org/2000/svg" xmlns:xlink="http://www.w3.org/1999/xlink" width="300px" height="56px" viewBox="0 0 298 56" version="1.1">
<g id="surface1">
<path style=" stroke:none;fill-rule:nonzero;fill:rgb(0%,2.745098%,4.705882%);fill-opacity:1;" d="M 142.125 16.089844 C 142.125 13.648438 139.757812 11.671875 136.835938 11.671875 C 133.917969 11.671875 131.550781 13.648438 131.550781 16.089844 C 131.550781 18.53125 133.917969 20.511719 136.835938 20.511719 C 139.757812 20.511719 142.125 18.53125 142.125 16.089844 Z M 142.125 16.089844 "/>
<path style=" stroke:none;fill-rule:nonzero;fill:rgb(0%,2.745098%,4.705882%);fill-opacity:1;" d="M 144.066406 7.070312 C 143.964844 7.070312 143.871094 7.082031 143.777344 7.101562 C 143.601562 7.136719 143.425781 7.070312 143.285156 6.960938 C 142.9375 6.683594 142.46875 6.511719 141.949219 6.511719 C 140.875 6.511719 140.007812 7.238281 140.007812 8.132812 C 140.007812 9.03125 140.875 9.757812 141.949219 9.757812 C 142.378906 9.757812 142.773438 9.640625 143.09375 9.441406 C 143.359375 9.277344 143.660156 9.175781 143.976562 9.195312 C 144.003906 9.195312 144.03125 9.195312 144.0625 9.195312 C 144.761719 9.195312 145.332031 8.722656 145.332031 8.132812 C 145.332031 7.546875 144.761719 7.070312 144.0625 7.070312 Z M 144.066406 7.070312 "/>
<path style=" stroke:none;fill-rule:nonzero;fill:rgb(0%,2.745098%,4.705882%);fill-opacity:1;" d="M 131.550781 21.042969 C 131.550781 22.117188 130.679688 22.988281 129.609375 22.988281 C 128.539062 22.988281 127.671875 22.117188 127.671875 21.042969 C 127.671875 19.96875 128.539062 19.097656 129.609375 19.097656 C 130.679688 19.097656 131.550781 19.96875 131.550781 21.042969 Z M 131.550781 21.042969 "/>
<path style=" stroke:none;fill-rule:nonzero;fill:rgb(0%,2.745098%,4.705882%);fill-opacity:1;" d="M 146.355469 32.1875 C 146.355469 31.40625 145.644531 30.773438 144.769531 30.773438 C 143.890625 30.773438 143.179688 31.40625 143.179688 32.1875 C 143.179688 32.96875 143.890625 33.601562 144.769531 33.601562 C 145.644531 33.601562 146.355469 32.96875 146.355469 32.1875 Z M 146.355469 32.1875 "/>
<path style=" stroke:none;fill-rule:nonzero;fill:rgb(0%,2.745098%,4.705882%);fill-opacity:1;" d="M 87.832031 41.914062 C 87.832031 42.402344 87.4375 42.796875 86.949219 42.796875 C 86.464844 42.796875 86.070312 42.402344 86.070312 41.914062 C 86.070312 41.425781 86.464844 41.027344 86.949219 41.027344 C 87.4375 41.027344 87.832031 41.425781 87.832031 41.914062 Z M 87.832031 41.914062 "/>
<path style=" stroke:none;fill-rule:nonzero;fill:rgb(0%,2.745098%,4.705882%);fill-opacity:1;" d="M 91.535156 44.832031 C 91.535156 44.195312 90.902344 43.679688 90.125 43.679688 C 89.34375 43.679688 88.714844 44.195312 88.714844 44.832031 C 88.714844 45.464844 89.34375 45.980469 90.125 45.980469 C 90.902344 45.980469 91.535156 45.464844 91.535156 44.832031 Z M 91.535156 44.832031 "/>
<path style=" stroke:none;fill-rule:nonzero;fill:rgb(0%,2.745098%,4.705882%);fill-opacity:1;" d="M 82.195312 43.382812 C 81.4375 43.160156 80.617188 43.675781 80.363281 44.539062 C 80.109375 45.402344 80.515625 46.285156 81.269531 46.507812 C 82.027344 46.734375 82.847656 46.214844 83.101562 45.351562 C 83.355469 44.492188 82.949219 43.609375 82.195312 43.382812 Z M 82.195312 43.382812 "/>
<path style=" stroke:none;fill-rule:nonzero;fill:rgb(0%,2.745098%,4.705882%);fill-opacity:1;" d="M 154.464844 43.328125 C 154.464844 44.011719 153.914062 44.566406 153.230469 44.566406 C 152.550781 44.566406 152 44.011719 152 43.328125 C 152 42.644531 152.550781 42.089844 153.230469 42.089844 C 153.914062 42.089844 154.464844 42.644531 154.464844 43.328125 Z M 154.464844 43.328125 "/>
<path style=" stroke:none;fill-rule:nonzero;fill:rgb(0%,2.745098%,4.705882%);fill-opacity:1;" d="M 159.046875 41.027344 C 159.046875 41.417969 158.730469 41.734375 158.339844 41.734375 C 157.953125 41.734375 157.636719 41.417969 157.636719 41.027344 C 157.636719 40.640625 157.953125 40.324219 158.339844 40.324219 C 158.730469 40.324219 159.046875 40.640625 159.046875 41.027344 Z M 159.046875 41.027344 "/>
<path style=" stroke:none;fill-rule:nonzero;fill:rgb(0%,2.745098%,4.705882%);fill-opacity:1;" d="M 162.925781 42.976562 C 162.925781 43.660156 162.375 44.210938 161.691406 44.210938 C 161.011719 44.210938 160.457031 43.660156 160.457031 42.976562 C 160.457031 42.292969 161.011719 41.738281 161.691406 41.738281 C 162.375 41.738281 162.925781 42.292969 162.925781 42.976562 Z M 162.925781 42.976562 "/>
<path style=" stroke:none;fill-rule:nonzero;fill:rgb(0%,2.745098%,4.705882%);fill-opacity:1;" d="M 216.867188 31.125 C 216.867188 30.539062 216.472656 30.0625 215.988281 30.0625 C 215.5 30.0625 215.105469 30.539062 215.105469 31.125 C 215.105469 31.710938 215.5 32.1875 215.988281 32.1875 C 216.472656 32.1875 216.867188 31.710938 216.867188 31.125 Z M 216.867188 31.125 "/>
<path style=" stroke:none;fill-rule:nonzero;fill:rgb(0%,2.745098%,4.705882%);fill-opacity:1;" d="M 203.46875 20.511719 C 203.46875 19.730469 202.917969 19.097656 202.238281 19.097656 C 201.554688 19.097656 201.003906 19.730469 201.003906 20.511719 C 201.003906 21.292969 201.554688 21.925781 202.238281 21.925781 C 202.917969 21.925781 203.46875 21.292969 203.46875 20.511719 Z M 203.46875 20.511719 "/>
<path style=" stroke:none;fill-rule:nonzero;fill:rgb(0%,2.745098%,4.705882%);fill-opacity:1;" d="M 208.054688 17.859375 C 208.054688 17.371094 207.738281 16.976562 207.351562 16.976562 C 206.960938 16.976562 206.644531 17.371094 206.644531 17.859375 C 206.644531 18.347656 206.960938 18.742188 207.351562 18.742188 C 207.738281 18.742188 208.054688 18.347656 208.054688 17.859375 Z M 208.054688 17.859375 "/>
<path style=" stroke:none;fill-rule:nonzero;fill:rgb(0%,2.745098%,4.705882%);fill-opacity:1;" d="M 216.515625 14.855469 C 216.515625 17.199219 214.699219 19.101562 212.460938 19.101562 C 210.222656 19.101562 208.40625 17.199219 208.40625 14.855469 C 208.40625 12.507812 210.75 10.609375 212.988281 10.609375 C 215.226562 10.609375 216.515625 12.507812 216.515625 14.855469 Z M 216.515625 14.855469 "/>
<path style=" stroke:none;fill-rule:nonzero;fill:rgb(0%,2.745098%,4.705882%);fill-opacity:1;" d="M 212.636719 8.664062 C 212.636719 8.175781 212.320312 7.777344 211.929688 7.777344 C 211.542969 7.777344 211.226562 8.175781 211.226562 8.664062 C 211.226562 9.152344 211.542969 9.546875 211.929688 9.546875 C 212.320312 9.546875 212.636719 9.152344 212.636719 8.664062 Z M 212.636719 8.664062 "/>
<path style=" stroke:none;fill-rule:nonzero;fill:rgb(0%,2.745098%,4.705882%);fill-opacity:1;" d="M 229.5625 43.152344 C 229.5625 42.5625 229.167969 42.089844 228.679688 42.089844 C 228.191406 42.089844 227.796875 42.5625 227.796875 43.152344 C 227.796875 43.738281 228.191406 44.210938 228.679688 44.210938 C 229.167969 44.210938 229.5625 43.738281 229.5625 43.152344 Z M 229.5625 43.152344 "/>
<path style=" stroke:none;fill-rule:nonzero;fill:rgb(0%,2.745098%,4.705882%);fill-opacity:1;" d="M 238.375 42.796875 C 238.375 42.210938 237.980469 41.734375 237.492188 41.734375 C 237.003906 41.734375 236.609375 42.210938 236.609375 42.796875 C 236.609375 43.382812 237.003906 43.859375 237.492188 43.859375 C 237.980469 43.859375 238.375 43.382812 238.375 42.796875 Z M 238.375 42.796875 "/>
<path style=" stroke:none;fill-rule:nonzero;fill:rgb(0%,2.745098%,4.705882%);fill-opacity:1;" d="M 233.4375 45.097656 C 233.4375 45.78125 232.886719 46.335938 232.203125 46.335938 C 231.523438 46.335938 230.972656 45.78125 230.972656 45.097656 C 230.972656 44.414062 231.523438 43.859375 232.203125 43.859375 C 232.886719 43.859375 233.4375 44.414062 233.4375 45.097656 Z M 233.4375 45.097656 "/>
<path style=" stroke:none;fill-rule:nonzero;fill:rgb(0%,2.745098%,4.705882%);fill-opacity:1;" d="M 288.433594 31.035156 C 287.605469 29.597656 285.910156 29.027344 284.648438 29.761719 C 283.382812 30.492188 283.027344 32.25 283.855469 33.6875 C 284.683594 35.125 286.378906 35.699219 287.644531 34.964844 C 288.90625 34.234375 289.261719 32.472656 288.433594 31.035156 Z M 288.433594 31.035156 "/>
<path style=" stroke:none;fill-rule:nonzero;fill:rgb(0%,2.745098%,4.705882%);fill-opacity:1;" d="M 291.257812 16.976562 C 291.257812 17.5625 290.785156 18.039062 290.199219 18.039062 C 289.613281 18.039062 289.140625 17.5625 289.140625 16.976562 C 289.140625 16.390625 289.613281 15.914062 290.199219 15.914062 C 290.785156 15.914062 291.257812 16.390625 291.257812 16.976562 Z M 291.257812 16.976562 "/>
<path style=" stroke:none;fill-rule:nonzero;fill:rgb(0%,2.745098%,4.705882%);fill-opacity:1;" d="M 285.265625 17.152344 C 285.265625 16.664062 284.949219 16.269531 284.558594 16.269531 C 284.171875 16.269531 283.855469 16.664062 283.855469 17.152344 C 283.855469 17.640625 284.171875 18.039062 284.558594 18.039062 C 284.949219 18.039062 285.265625 17.640625 285.265625 17.152344 Z M 285.265625 17.152344 "/>
<path style=" stroke:none;fill-rule:nonzero;fill:rgb(0%,2.745098%,4.705882%);fill-opacity:1;" d="M 294.785156 12.023438 C 294.785156 13.097656 294.28125 14.058594 293.492188 14.710938 C 292.585938 15.453125 291.238281 15.394531 290.382812 14.597656 C 289.851562 14.101562 289.308594 13.9375 288.847656 13.078125 C 288.503906 12.433594 288.402344 11.6875 288.507812 10.964844 C 288.714844 9.53125 289.421875 8.488281 291.082031 8.488281 C 293.125 8.488281 294.785156 10.070312 294.785156 12.023438 Z M 294.785156 12.023438 "/>
<path style=" stroke:none;fill-rule:nonzero;fill:rgb(0%,2.745098%,4.705882%);fill-opacity:1;" d="M 68.4375 33.425781 C 68.4375 31.960938 67.414062 30.773438 66.148438 30.773438 C 64.882812 30.773438 63.855469 31.960938 63.855469 33.425781 C 63.855469 34.890625 64.882812 36.078125 66.148438 36.078125 C 67.414062 36.078125 68.4375 34.890625 68.4375 33.425781 Z M 68.4375 33.425781 "/>
<path style=" stroke:none;fill-rule:nonzero;fill:rgb(0%,2.745098%,4.705882%);fill-opacity:1;" d="M 68.441406 16.265625 C 68.441406 15.679688 68.203125 15.203125 67.914062 15.203125 C 67.621094 15.203125 67.382812 15.679688 67.382812 16.265625 C 67.382812 16.851562 67.621094 17.328125 67.914062 17.328125 C 68.203125 17.328125 68.441406 16.851562 68.441406 16.265625 Z M 68.441406 16.265625 "/>
<path style=" stroke:none;fill-rule:nonzero;fill:rgb(0%,2.745098%,4.705882%);fill-opacity:1;" d="M 69.851562 11.316406 C 69.851562 11.703125 69.535156 12.019531 69.144531 12.019531 C 68.757812 12.019531 68.441406 11.703125 68.441406 11.316406 C 68.441406 10.925781 68.757812 10.609375 69.144531 10.609375 C 69.535156 10.609375 69.851562 10.925781 69.851562 11.316406 Z M 69.851562 11.316406 "/>
<path style=" stroke:none;fill-rule:nonzero;fill:rgb(0%,2.745098%,4.705882%);fill-opacity:1;" d="M 69.761719 9.164062 C 69.988281 9.367188 70.015625 10.011719 69.734375 9.90625 C 68.792969 9.546875 68.214844 10.960938 67.207031 10.960938 C 65.941406 10.960938 64.914062 10.25 64.914062 9.367188 C 64.914062 8.488281 65.941406 7.777344 67.207031 7.777344 C 68.285156 7.777344 68.9375 8.421875 69.761719 9.160156 Z M 69.761719 9.164062 "/>
<path style=" stroke:none;fill-rule:nonzero;fill:rgb(0%,2.745098%,4.705882%);fill-opacity:1;" d="M 15.203125 42.265625 C 15.203125 42.558594 14.964844 42.796875 14.675781 42.796875 C 14.382812 42.796875 14.144531 42.738281 14.144531 42.445312 C 14.144531 42.152344 14.382812 41.738281 14.675781 41.738281 C 14.964844 41.738281 15.203125 41.976562 15.203125 42.269531 Z M 15.203125 42.265625 "/>
<path style=" stroke:none;fill-rule:nonzero;fill:rgb(0%,2.745098%,4.705882%);fill-opacity:1;" d="M 11.285156 42.808594 C 11.5 43.722656 10.828125 44.539062 9.957031 44.566406 C 8.929688 44.597656 8.320312 43.414062 8.828125 42.515625 C 9.082031 42.0625 9.390625 41.722656 9.949219 41.738281 C 10.574219 41.753906 11.140625 42.199219 11.285156 42.808594 Z M 11.285156 42.808594 "/>
<path style=" stroke:none;fill-rule:nonzero;fill:rgb(0%,2.745098%,4.705882%);fill-opacity:1;" d="M 23.664062 43.859375 C 25.425781 42.683594 29.308594 39.613281 33.183594 30.417969 C 35.921875 24.675781 39.707031 24.921875 41.699219 25.5625 C 42.421875 25.796875 43.019531 26.289062 43.449219 26.910156 C 44.359375 28.230469 45.167969 26.878906 45.167969 26.878906 C 45.875 25.816406 47.816406 22 47.816406 22 L 47.820312 22 C 48.203125 21.179688 48.675781 20.363281 49.246094 19.574219 C 51.617188 15.242188 55.910156 13.242188 59.515625 13.683594 C 61.300781 13.902344 62.925781 14.894531 63.828125 16.453125 C 65.699219 19.683594 65.359375 24.878906 62.320312 29.082031 C 61.09375 30.785156 59.632812 32.152344 58.09375 33.132812 C 56.851562 34.164062 55.457031 34.914062 55.457031 34.914062 C 54.128906 35.753906 55.445312 37.105469 56.257812 37.78125 C 56.507812 37.988281 56.777344 38.171875 57.0625 38.324219 C 57.9375 38.796875 60.734375 40.519531 61.035156 43.5 C 61.316406 46.316406 59.582031 47.128906 58.867188 47.34375 C 58.714844 47.390625 58.632812 47.550781 58.671875 47.707031 C 58.769531 48.109375 58.714844 48.546875 58.652344 48.835938 C 58.613281 49.027344 58.445312 49.160156 58.25 49.15625 L 14.144531 49.15625 C 14.144531 49.15625 4.710938 49.078125 4.710938 49.078125 C 4.65625 49.078125 4.601562 49.070312 4.550781 49.046875 C 3.820312 48.671875 3.441406 47.027344 3.292969 46.300781 C 3.292969 46.300781 3.214844 45.976562 3.214844 45.804688 C 3.214844 44.921875 3.847656 44.210938 4.628906 44.210938 C 5.203125 44.210938 5.703125 44.605469 5.917969 45.167969 C 6.035156 45.472656 6.195312 45.757812 6.4375 45.976562 C 6.519531 46.050781 6.601562 46.121094 6.679688 46.183594 C 7.109375 46.523438 7.628906 46.730469 8.175781 46.789062 C 8.175781 46.789062 12.03125 47.039062 13.441406 46.332031 C 14.8125 45.644531 18.183594 41.945312 20.960938 43.691406 C 21.171875 43.824219 21.386719 43.945312 21.625 44.019531 C 22.125 44.171875 22.96875 44.316406 23.664062 43.855469 Z M 23.664062 43.859375 "/>
<path style=" stroke:none;fill-rule:nonzero;fill:rgb(0%,2.745098%,4.705882%);fill-opacity:1;" d="M 83.28125 48.632812 L 133.839844 48.632812 C 134.757812 48.449219 135.28125 47.476562 134.933594 46.605469 L 134.898438 46.507812 C 134.898438 46.507812 133.546875 44.070312 132.5 42.988281 C 132.207031 42.6875 132 42.308594 131.945312 41.890625 C 131.867188 41.269531 131.90625 40.582031 132.492188 40.121094 C 132.726562 39.941406 133.007812 39.820312 133.300781 39.78125 C 135.515625 39.484375 140.527344 33.660156 140.183594 29.179688 C 139.832031 24.582031 136.65625 22.8125 134.539062 24.582031 C 132.757812 26.070312 130.851562 28.6875 129.03125 29.898438 C 128.53125 30.234375 127.929688 30.382812 127.332031 30.347656 C 125.710938 30.257812 124.996094 30.707031 124.335938 29.617188 C 124.074219 29.1875 123.945312 28.6875 123.917969 28.183594 C 123.828125 26.339844 123.707031 23.082031 119.023438 22.457031 C 114.0625 21.792969 110.183594 31.570312 107.539062 36.722656 C 107.285156 37.21875 107.09375 37.742188 106.898438 38.265625 C 106.425781 39.527344 105.082031 39.160156 104.238281 38.769531 C 103.734375 38.539062 103.191406 38.382812 102.636719 38.363281 C 100.75 38.304688 99.066406 39.058594 97.457031 41.910156 C 97.457031 41.910156 94.253906 46.835938 89.15625 46.410156 C 88.671875 46.367188 88.238281 46.074219 88.035156 45.636719 C 87.828125 45.195312 87.519531 44.738281 86.234375 44.738281 C 84.121094 44.738281 83.765625 46.507812 83.238281 46.683594 C 82.710938 46.863281 82.179688 47.039062 81.125 47.039062 C 81.0625 47.039062 80.996094 47.042969 80.933594 47.050781 C 80.269531 47.15625 80.28125 48.136719 80.945312 48.25 C 80.945312 48.25 81.484375 48.261719 81.921875 48.398438 C 82.359375 48.535156 82.8125 48.628906 83.269531 48.628906 Z M 83.28125 48.632812 "/>
<path style=" stroke:none;fill-rule:nonzero;fill:rgb(0%,2.745098%,4.705882%);fill-opacity:1;" d="M 281.460938 36.570312 C 280.582031 35.417969 279.25 35.082031 278.222656 33.769531 C 277.917969 33.382812 277.707031 32.933594 277.613281 32.453125 C 277.511719 31.914062 277.488281 31.164062 277.863281 30.417969 C 278.566406 29 283.503906 19.449219 278.921875 16.621094 C 276.464844 15.105469 273.707031 15.109375 271.296875 15.933594 C 268.882812 16.757812 266.820312 18.535156 265.464844 20.757812 C 263.824219 23.445312 261.949219 26.050781 261.644531 29.707031 C 261.292969 33.953125 258.535156 32.273438 258.535156 32.273438 C 258.535156 32.273438 255.300781 30.417969 253.183594 32.890625 C 251.523438 34.835938 250.296875 37.21875 249.847656 38.148438 C 249.617188 38.628906 249.367188 39.089844 249.09375 39.542969 C 248.078125 41.238281 245.839844 44.566406 243.640625 45.175781 C 243.085938 45.328125 242.542969 45.527344 242.046875 45.824219 L 241.691406 46.035156 C 241.40625 46.203125 241.042969 46.179688 240.8125 45.945312 C 240.058594 45.183594 238.992188 44.828125 237.941406 44.984375 C 237.21875 45.09375 236.757812 45.226562 235.636719 45.730469 C 235.351562 45.855469 235.078125 46.003906 234.796875 46.140625 C 234.429688 46.320312 234.238281 46.28125 233.910156 46.242188 C 232.789062 46.101562 230.402344 45.914062 228.851562 46.59375 C 228.851562 46.566406 228.859375 46.539062 228.859375 46.507812 C 228.859375 45.824219 228.386719 45.273438 227.800781 45.273438 C 227.214844 45.273438 226.742188 45.828125 226.742188 46.507812 C 226.742188 47.109375 227.109375 47.609375 227.59375 47.722656 C 227.414062 48.109375 227.347656 48.582031 227.445312 49.160156 L 275.984375 48.8125 C 276.289062 48.8125 276.585938 48.714844 276.84375 48.546875 C 277.160156 48.332031 277.160156 47.867188 276.84375 47.652344 C 276.640625 47.519531 276.613281 47.234375 276.785156 47.058594 L 277.035156 46.804688 C 277.542969 46.300781 277.882812 45.621094 277.863281 44.902344 C 277.855469 44.683594 277.90625 44.472656 278.003906 44.277344 C 278.351562 43.585938 279.054688 43.148438 279.828125 43.148438 C 280.125 43.148438 280.414062 43.050781 280.648438 42.871094 C 281.300781 42.371094 282.488281 41.195312 282.445312 39.261719 C 282.425781 38.285156 282.058594 37.347656 281.464844 36.570312 Z M 281.460938 36.570312 "/>
<path style=" stroke:none;fill-rule:nonzero;fill:rgb(0%,2.745098%,4.705882%);fill-opacity:1;" d="M 154.742188 46.59375 C 155.058594 46.621094 155.378906 46.566406 155.660156 46.421875 C 157.605469 45.410156 157.4375 46.25 158.34375 45.628906 C 158.644531 45.421875 159.753906 45.273438 160.457031 45.628906 C 160.574219 45.6875 160.726562 45.75 160.90625 45.808594 C 162.019531 46.160156 163.226562 45.953125 164.210938 45.332031 C 164.433594 45.191406 164.628906 45.078125 164.8125 44.980469 C 165.460938 44.632812 166.128906 44.316406 166.792969 44 C 168.101562 43.371094 170.375 41.664062 171.710938 39.046875 C 172.113281 38.261719 172.550781 37.496094 173.101562 36.804688 C 174.710938 34.796875 176.03125 34.308594 178.089844 34.308594 C 179.816406 34.308594 181.035156 35.523438 181.394531 36.25 C 181.476562 36.414062 181.714844 36.386719 181.765625 36.210938 C 182.117188 34.875 183.128906 31.183594 185.082031 25 C 185.503906 23.664062 186.105469 22.386719 186.929688 21.253906 C 191.085938 15.503906 196.425781 18.039062 196.425781 18.039062 C 202.066406 20.515625 199.597656 26.527344 199.597656 26.527344 C 199.597656 26.527344 198.820312 28.347656 199.773438 29.535156 C 200.050781 29.882812 200.453125 30.101562 200.886719 30.203125 C 205.128906 31.234375 210.21875 28.105469 211.359375 32.277344 C 212.542969 36.609375 208.765625 39.972656 207.355469 40.679688 C 205.945312 41.382812 204.535156 41.738281 203.828125 43.15625 C 203.46875 43.875 203.484375 45.058594 203.945312 46.042969 C 204.398438 47.011719 204.007812 48.042969 202.996094 48.375 C 202.933594 48.398438 202.867188 48.40625 202.800781 48.40625 C 199.894531 48.355469 186.890625 48.457031 185.476562 48.410156 C 184.941406 48.390625 184.511719 48.492188 184.183594 48.625 C 183.355469 48.96875 182.488281 49.195312 181.59375 49.21875 C 167.441406 49.625 163.355469 49.054688 162.175781 48.683594 C 161.773438 48.554688 161.347656 48.527344 160.921875 48.566406 C 159.683594 48.691406 158.21875 48.308594 157.347656 48.023438 C 156.867188 47.867188 156.359375 47.84375 155.867188 47.953125 C 155.117188 48.121094 153.808594 48.300781 152 48.140625 C 151.714844 48.113281 151.453125 47.933594 151.363281 47.660156 C 151.265625 47.371094 151.375 47.042969 152.355469 47.042969 C 153.84375 47.042969 154.078125 46.539062 154.75 46.59375 Z M 154.742188 46.59375 "/>
</g>
</svg>
