<?xml version="1.0" encoding="UTF-8"?>
<svg id="Capa_1" data-name="Capa 1" xmlns="http://www.w3.org/2000/svg" viewBox="0 0 695 856">
  <defs>
    <style>
      .cls-1 {
        fill: #030000;
      }

      .cls-1, .cls-2, .cls-3, .cls-4, .cls-5, .cls-6, .cls-7, .cls-8, .cls-9, .cls-10, .cls-11, .cls-12, .cls-13, .cls-14, .cls-15, .cls-16, .cls-17, .cls-18, .cls-19, .cls-20, .cls-21, .cls-22, .cls-23, .cls-24, .cls-25, .cls-26, .cls-27, .cls-28, .cls-29, .cls-30, .cls-31, .cls-32, .cls-33, .cls-34, .cls-35, .cls-36 {
        stroke-width: 0px;
      }

      .cls-2 {
        fill: #e29a84;
      }

      .cls-3 {
        fill: #00253f;
      }

      .cls-4 {
        fill: #1badaa;
      }

      .cls-5 {
        fill: #e8778b;
      }

      .cls-6 {
        fill: #264933;
      }

      .cls-7 {
        fill: #e69577;
      }

      .cls-8 {
        fill: #0b9b9b;
      }

      .cls-9 {
        fill: #fa3e57;
      }

      .cls-10 {
        fill: #dc0e56;
      }

      .cls-11 {
        fill: #cee1e7;
      }

      .cls-12 {
        fill: #59b167;
      }

      .cls-13 {
        fill: #f4bf9f;
      }

      .cls-14 {
        fill: #f8c09d;
      }

      .cls-15 {
        fill: #f3ad93;
      }

      .cls-16 {
        fill: #63d0bd;
      }

      .cls-17 {
        fill: #060100;
      }

      .cls-18 {
        fill: #067765;
      }

      .cls-19 {
        fill: #e26b63;
      }

      .cls-20 {
        fill: #929393;
      }

      .cls-21 {
        fill: #002a38;
      }

      .cls-37 {
        fill: none;
        stroke: #000;
        stroke-miterlimit: 10;
        stroke-width: .21px;
      }

      .cls-22 {
        fill: #ec8f7e;
      }

      .cls-23 {
        fill: #ffdabe;
      }

      .cls-24 {
        fill: #041521;
      }

      .cls-25 {
        fill: #e59b85;
      }

      .cls-26 {
        fill: #c10444;
      }

      .cls-27 {
        fill: #065669;
      }

      .cls-28 {
        fill: #010000;
      }

      .cls-29 {
        fill: #abbecc;
      }

      .cls-30 {
        fill: #337f50;
      }

      .cls-31 {
        fill: #00738a;
      }

      .cls-32 {
        fill: #009397;
      }

      .cls-33 {
        fill: #c56a6f;
      }

      .cls-34 {
        fill: #00313d;
      }

      .cls-35 {
        fill: #768d9b;
      }

      .cls-36 {
        fill: #0d2436;
      }
    </style>
  </defs>
  <rect class="cls-14" x="306.02" y="294.08" width="52.36" height="223.81" rx="26.18" ry="26.18" transform="translate(772.06 120.16) rotate(96.28)"/>
  <path class="cls-14" d="m220.73,242.53h52.36v126.63c0,14.07-11.42,25.49-25.49,25.49h-1.38c-14.07,0-25.49-11.42-25.49-25.49v-126.63h0Z" transform="translate(493.81 637.19) rotate(180)"/>
  <rect class="cls-33" x="220.73" y="317.17" width="52.36" height="9.59" transform="translate(493.81 643.92) rotate(180)"/>
  <path class="cls-6" d="m246.91,217.37h0c16.51,0,29.91,13.4,29.91,29.91v67.96c0,1.06-.86,1.93-1.93,1.93h-55.96c-1.06,0-1.93-.86-1.93-1.93v-67.96c0-16.51,13.4-29.91,29.91-29.91Z"/>
  <g>
    <path class="cls-22" d="m235.43,181.7h42.07v23.74c0,11.61-9.43,21.03-21.03,21.03h0c-11.61,0-21.03-9.43-21.03-21.03v-23.74h0Z"/>
    <path class="cls-33" d="m235.43,181.79h42.07v3.13c0,11.61-9.43,21.03-21.03,21.03h0c-11.61,0-21.03-9.43-21.03-21.03v-3.13h0Z"/>
  </g>
  <rect class="cls-12" x="180.96" y="299.37" width="128.52" height="136.2"/>
  <rect class="cls-30" x="180.96" y="397.47" width="128.52" height="15.11"/>
  <rect class="cls-30" x="180.96" y="363.4" width="128.52" height="15.11"/>
  <rect class="cls-30" x="180.96" y="326.54" width="128.52" height="15.11"/>
  <path class="cls-27" d="m369.24,386.6h0c12.38,0,22.44,10.05,22.44,22.44v190.74h-44.88v-190.74c0-12.38,10.05-22.44,22.44-22.44Z" transform="translate(-123.96 862.43) rotate(-90)"/>
  <path class="cls-27" d="m517.62,462.13h0c12.32,0,22.31,10,22.31,22.31v246.92h-44.63v-246.92c0-12.32,10-22.31,22.31-22.31Z" transform="translate(-189.86 245.3) rotate(-22.65)"/>
  <path class="cls-36" d="m517.62,462.13h0c12.32,0,22.31,10,22.31,22.31v246.92h-44.63v-246.92c0-12.32,10-22.31,22.31-22.31Z" transform="translate(-189.86 245.3) rotate(-22.65)"/>
  <path class="cls-36" d="m355.62,372.98h0c12.38,0,22.44,10.05,22.44,22.44v217.98h-44.88v-217.98c0-12.38,10.05-22.44,22.44-22.44Z" transform="translate(-137.58 848.81) rotate(-90)"/>
  <g>
    <path class="cls-21" d="m252.15,516.94h0c-35.49,0-64.26-28.77-64.26-64.26v-16.62s128.52,0,128.52,0v16.62c0,35.49-28.77,64.26-64.26,64.26Z"/>
    <rect class="cls-1" x="171.72" y="432.97" width="159.03" height="19.83" rx="8.4" ry="8.4"/>
  </g>
  <g>
    <path class="cls-35" d="m652.28,693.23l-45.06,18.53c-8.66,3.56-18.57-.57-22.14-9.23h0c-3.1-7.54.5-16.17,8.04-19.27l29.26-12.03c9.85-4.05,21.11.65,25.16,10.5l4.73,11.51Z"/>
    <path class="cls-35" d="m603.86,713.12l-53.25,21.9-12.1-29.43,51.87-21.33c7.18-2.95,15.39.47,18.34,7.65l1.98,4.82c2.64,6.41-.42,13.75-6.84,16.39Z"/>
    <path class="cls-29" d="m603.02,708.84l-54.04,22.22-10.47-25.46,52.75-21.69c6.69-2.75,14.35.44,17.1,7.14l1.03,2.51c2.46,5.98-.4,12.83-6.38,15.29Z"/>
    <path class="cls-29" d="m650.63,689.21l-48.03,19.75c-7.02,2.89-15.05-.46-17.94-7.49h0c-2.89-7.02.46-15.05,7.49-17.94l31.43-12.93c9.17-3.77,19.65.61,23.42,9.77l3.63,8.83Z"/>
  </g>
  <path class="cls-30" d="m239.18,219.76h24.1c34.85,0,63.15,28.29,63.15,63.15v3.37c0,12.69-10.3,23-23,23h-104.4c-12.69,0-23-10.3-23-23v-3.37c0-34.85,28.29-63.15,63.15-63.15Z"/>
  <path class="cls-12" d="m239.18,209.85h24.1c34.85,0,63.15,28.29,63.15,63.15v3.37c0,12.69-10.3,23-23,23h-104.4c-12.69,0-23-10.3-23-23v-3.37c0-34.85,28.29-63.15,63.15-63.15Z"/>
  <path class="cls-30" d="m321.58,248.72h-27.89c-4.04,0-7.32,3.28-7.32,7.32v.77c0,4.04,3.28,7.32,7.32,7.32h32.1c-.76-5.39-2.19-10.56-4.21-15.42Z"/>
  <path class="cls-14" d="m220.73,242.53h52.36v126.63c0,14.07-11.42,25.49-25.49,25.49h-1.38c-14.07,0-25.49-11.42-25.49-25.49v-126.63h0Z" transform="translate(493.81 637.19) rotate(180)"/>
  <rect class="cls-33" x="220.73" y="317.17" width="52.36" height="9.59" transform="translate(493.81 643.92) rotate(180)"/>
  <path class="cls-6" d="m246.91,217.37h0c16.51,0,29.91,13.4,29.91,29.91v67.96c0,1.06-.86,1.93-1.93,1.93h-55.96c-1.06,0-1.93-.86-1.93-1.93v-67.96c0-16.51,13.4-29.91,29.91-29.91Z"/>
  <path class="cls-19" d="m241.32,107.04h-30.48c-3.83,0-6.94,3.11-6.94,6.94,0,3.83,3.11,6.94,6.94,6.94h30.48v-13.88Z"/>
  <path class="cls-2" d="m216.53,138.4h79.43c2.79,0,5.06,2.27,5.06,5.06v41.94c0,3.99-3.24,7.23-7.23,7.23h-75.5c-3.99,0-7.23-3.24-7.23-7.23v-41.53c0-3.02,2.45-5.48,5.48-5.48Z"/>
  <rect class="cls-23" x="217.05" y="144.25" width="77.98" height="5.59" rx="2.8" ry="2.8"/>
  <g>
    <path class="cls-7" d="m258.34,79.15h-17.16s-23.26,0-23.26,0v6.88s0,17.29,0,17.29c10.78,0,19.82-7.34,22.46-17.29h17.96v-6.88Z"/>
    <rect class="cls-7" x="264.16" y="94.36" width="30" height="9.89"/>
  </g>
  <g>
    <rect class="cls-17" x="214.78" y="95.73" width="4.17" height="37.01"/>
    <rect class="cls-17" x="293.05" y="95.1" width="4.24" height="37.65"/>
  </g>
  <path class="cls-13" d="m295.87,138.4h-2.82v-44.44c0-20.46-16.59-37.05-37.05-37.05s-37.05,16.59-37.05,37.05v44.44s-2.75,0-2.75,0c-2.85,0-5.15,2.31-5.15,5.15v20.15c0,2.85,2.31,5.15,5.15,5.15h36.59s0,0,0,0h5.21s37.87,0,37.87,0c2.85,0,5.15-2.31,5.15-5.15v-20.15c0-2.85-2.31-5.15-5.15-5.15Zm-40.31,19.17h-.32c.05,0,.11-.02.16-.02s.11.01.16.02Z"/>
  <path class="cls-15" d="m270.08,157.4h0c1.43,0,2.6,1.16,2.6,2.6v8.86h-5.19v-8.86c0-1.43,1.16-2.6,2.6-2.6Z"/>
  <g>
    <g>
      <path class="cls-3" d="m271.73,78.12h-14.52v17.35s0,10.67,0,10.67h.71c6.55,0,12.02-4.56,13.44-10.67h26.4c8.41,0,15.23-6.82,15.23-15.23v-2.12h-41.26Z"/>
      <path class="cls-28" d="m257.21,78.12h47.81v.85c0,5.86-4.76,10.62-10.62,10.62h-37.19v-11.47h0Z"/>
    </g>
    <g>
      <path class="cls-3" d="m199.09,78.99h35.67v.06c0,9.84-7.99,17.83-17.83,17.83h0c-9.84,0-17.83-7.99-17.83-17.83v-.06h0Z"/>
      <path class="cls-28" d="m212.93,84.87h20.83c.63-1.83.99-3.78.99-5.82v-.06h-27.73c.02,3.25,2.65,5.88,5.91,5.88Z"/>
    </g>
  </g>
  <rect class="cls-26" x="244.4" y="114.75" width="43.44" height="10.67" rx="5.33" ry="5.33"/>
  <path class="cls-25" d="m252.78,129.85h27.68c.85,0,1.53.69,1.53,1.53v.74c0,1.89-1.54,3.43-3.43,3.43h-23.81c-1.94,0-3.52-1.58-3.52-3.52v-.65c0-.85.69-1.53,1.53-1.53Z"/>
  <g>
    <rect class="cls-10" x="255.07" y="88.49" width="22.11" height="37.45" rx="4.61" ry="4.61"/>
    <rect class="cls-9" x="255.07" y="82.88" width="22.11" height="37.45" rx="4.61" ry="4.61"/>
    <rect class="cls-5" x="257.8" y="88.53" width="5.49" height="26.7" rx="2.75" ry="2.75"/>
  </g>
  <line class="cls-32" x1="206.59" y1="66.85" x2="305.49" y2="66.85"/>
  <line class="cls-37" x1="214.08" y1="57.59" x2="298" y2="57.59"/>
  <g>
    <path class="cls-8" d="m233.68,33.4h44.85c10.78,0,19.54,8.75,19.54,19.54v26.15h-83.93v-26.15c0-10.78,8.75-19.54,19.54-19.54Z"/>
    <path class="cls-4" d="m243.16,33.4h35.5c10.71,0,19.41,8.7,19.41,19.41v4.76h-72.87v-6.2c0-9.91,8.05-17.96,17.96-17.96Z"/>
    <rect class="cls-16" x="248.07" y="38.28" width="38.04" height="7.65" rx="3.82" ry="3.82"/>
    <rect class="cls-31" x="214.14" y="57.59" width="83.93" height="9.22"/>
    <rect class="cls-32" x="206.59" y="66.85" width="98.9" height="12.24"/>
  </g>
  <rect class="cls-23" x="240.77" y="144.25" width="53.59" height="5.59" rx="2.8" ry="2.8"/>
  <line class="cls-32" x1="206.72" y1="66.85" x2="305.62" y2="66.85"/>
  <g>
    <rect class="cls-17" x="214.92" y="95.73" width="4.17" height="37.01"/>
    <rect class="cls-17" x="293.19" y="95.1" width="4.24" height="37.65"/>
  </g>
  <g>
    <rect class="cls-11" x="17.35" y="213.81" width="77.85" height="25.6" rx="7.05" ry="7.05"/>
    <path class="cls-24" d="m133.45,265.11l-2.22-33.41c-.02-.33-.08-.66-.16-.96-.86-5.06-5.25-8.91-10.56-8.91h-25.31v10.72s25.86,0,25.86,0l2.21,33.25,10.19-.68Z"/>
    <rect class="cls-20" x="95.19" y="220.35" width="2.81" height="13.56"/>
    <rect class="cls-24" x="206.73" y="582.08" width="15.36" height="99.45"/>
    <polygon class="cls-24" points="559.41 732.91 544.15 739.33 478.41 580.12 493.48 573.79 559.41 732.91"/>
    <rect class="cls-24" x="519.87" y="716.44" width="157.81" height="29.94" rx="14.97" ry="14.97" transform="translate(-237.3 290.42) rotate(-22.88)"/>
    <path class="cls-18" d="m209.16,496.41h245.06c10.88,0,19.71,8.83,19.71,19.71v21.26H189.45v-21.26c0-10.88,8.83-19.71,19.71-19.71Z"/>
    <path class="cls-34" d="m472.93,529.95l-288.03,2.43-27.43-247.87c-1.51-13.68-13.6-23.6-27.08-22.22h0c-13.68,1.4-23.56,13.87-21.98,27.75l29.54,259.03c2.26,19.83,20.14,33.93,39.75,31.77l295.58-1.51c13.74-.07,24.85-11.05,24.9-24.6.05-13.75-11.31-24.89-25.25-24.77Z"/>
    <rect class="cls-20" x="204.83" y="577.72" width="18.76" height="4.3"/>
    <rect class="cls-20" x="444.8" y="577.72" width="18.76" height="4.3"/>
    <path class="cls-24" d="m493.49,573.8l-1.55-3.73h-.02c-1.28-4.09-4.97-7.06-9.32-7.06h-17.95v-121.93s0-.42,0-.42v-.02c0-11.27-8.73-20.4-19.5-20.4h-241.67s-6.27,0-6.27,0h0c-7.31,0-13.23,6.2-13.23,13.84v7h0v121.93h0v3.09s0,.05,0,.07v.02c0,7.06,5.47,12.78,12.21,12.78h.05s.03,0,.04,0h281.62s.01,0,.01,0l.53,1.28,15.02-6.45Zm-48.32-10.79h-241.67v-121.93h241.67v121.93Z"/>
    <g>
      <g>
        <rect class="cls-11" x="216.25" y="405.68" width="217.03" height="47.61" rx="10.54" ry="10.54"/>
        <rect class="cls-20" x="430.26" y="417.2" width="4.2" height="25.76"/>
      </g>
      <rect class="cls-20" x="213.75" y="417.2" width="4.2" height="25.76"/>
    </g>
    <path class="cls-24" d="m445.84,581.98h15.36v231.01c0,4.2-3.41,7.61-7.61,7.61h-.14c-4.2,0-7.61-3.41-7.61-7.61v-231.01h0Z"/>
  </g>
  <rect class="cls-14" x="306.02" y="294.08" width="52.36" height="223.81" rx="26.18" ry="26.18" transform="translate(772.06 120.16) rotate(96.28)"/>
</svg>