<?xml version="1.0" encoding="UTF-8"?>
<svg id="Capa_1" data-name="Capa 1" xmlns="http://www.w3.org/2000/svg" viewBox="0 0 1920 1080">
  <defs>
    <style>
      .cls-1 {
        fill: #cee1e7;
      }

      .cls-1, .cls-2, .cls-3, .cls-4, .cls-5 {
        stroke-width: 0px;
      }

      .cls-2 {
        fill: #067765;
      }

      .cls-3 {
        fill: #929393;
      }

      .cls-4 {
        fill: #041521;
      }

      .cls-5 {
        fill: #00313d;
      }
    </style>
  </defs>
  <rect class="cls-1" x="1209.8" y="236.61" width="77.85" height="25.6" rx="7.05" ry="7.05" transform="translate(2497.45 498.82) rotate(-180)"/>
  <path class="cls-4" d="m1171.55,287.9l2.22-33.41c.02-.33.08-.66.16-.96.86-5.06,5.25-8.91,10.56-8.91h25.31v10.72h-25.86s-2.21,33.25-2.21,33.25l-10.19-.68Z"/>
  <rect class="cls-3" x="1207" y="243.14" width="2.81" height="13.56" transform="translate(2416.81 499.84) rotate(-180)"/>
  <rect class="cls-4" x="1082.91" y="604.87" width="15.36" height="99.45" transform="translate(2181.18 1309.18) rotate(-180)"/>
  <polygon class="cls-4" points="745.59 755.7 760.85 762.12 826.59 602.91 811.52 596.58 745.59 755.7"/>
  <rect class="cls-4" x="627.32" y="739.23" width="157.81" height="29.94" rx="14.97" ry="14.97" transform="translate(1063.58 1723.66) rotate(-157.12)"/>
  <path class="cls-2" d="m831.07,519.2h284.48v21.26c0,10.88-8.83,19.71-19.71,19.71h-245.06c-10.88,0-19.71-8.83-19.71-19.71v-21.26h0Z" transform="translate(1946.62 1079.36) rotate(-180)"/>
  <path class="cls-5" d="m832.07,552.74l288.03,2.43,27.43-247.87c1.51-13.68,13.6-23.6,27.08-22.22h0c13.68,1.4,23.56,13.87,21.98,27.75l-29.54,259.03c-2.26,19.83-20.14,33.93-39.75,31.77l-295.58-1.51c-13.74-.07-24.85-11.05-24.9-24.6-.05-13.75,11.31-24.89,25.25-24.77Z"/>
  <rect class="cls-3" x="1081.41" y="600.51" width="18.76" height="4.3" transform="translate(2181.58 1205.31) rotate(-180)"/>
  <rect class="cls-3" x="841.44" y="600.51" width="18.76" height="4.3" transform="translate(1701.64 1205.31) rotate(-180)"/>
  <path class="cls-4" d="m826.53,603.04l.53-1.28h.01s281.62,0,281.62,0c.01,0,.03,0,.04,0h.05c6.74,0,12.21-5.72,12.21-12.78v-.02s0-.05,0-.07v-3.09s0,0,0,0v-121.93h0v-7c0-7.65-5.92-13.84-13.23-13.84h-6.27s-241.67,0-241.67,0c-10.77,0-19.5,9.13-19.5,20.4v.44s0,121.93,0,121.93h-17.95c-4.35,0-8.03,2.96-9.32,7.07h-.02s-1.55,3.72-1.55,3.72l15.02,6.45Zm33.3-139.17h241.67v121.93h-241.67v-121.93Z"/>
  <g>
    <g>
      <rect class="cls-1" x="871.72" y="428.47" width="217.03" height="47.61" rx="10.54" ry="10.54" transform="translate(1960.47 904.54) rotate(-180)"/>
      <rect class="cls-3" x="870.53" y="439.99" width="4.2" height="25.76" transform="translate(1745.27 905.74) rotate(-180)"/>
    </g>
    <rect class="cls-3" x="1087.05" y="439.99" width="4.2" height="25.76" transform="translate(2178.3 905.74) rotate(-180)"/>
  </g>
  <path class="cls-4" d="m851.41,604.77h.14c4.2,0,7.61,3.41,7.61,7.61v231.01h-15.36v-231.01c0-4.2,3.41-7.61,7.61-7.61Z" transform="translate(1702.96 1448.16) rotate(-180)"/>
</svg>